<?xml version="1.0" encoding="UTF-8" standalone="no"?>
<!-- Created with Inkscape (http://www.inkscape.org/) -->

<svg
   width="210mm"
   height="297mm"
   viewBox="0 0 210 297"
   version="1.1"
   id="svg1"
   inkscape:version="1.4 (86a8ad7, 2024-10-11)"
   sodipodi:docname="cashbag2.svg"
   xmlns:inkscape="http://www.inkscape.org/namespaces/inkscape"
   xmlns:sodipodi="http://sodipodi.sourceforge.net/DTD/sodipodi-0.dtd"
   xmlns="http://www.w3.org/2000/svg"
   xmlns:svg="http://www.w3.org/2000/svg">
  <sodipodi:namedview
     id="namedview1"
     pagecolor="#ffffff"
     bordercolor="#000000"
     borderopacity="0.25"
     inkscape:showpageshadow="2"
     inkscape:pageopacity="0.0"
     inkscape:pagecheckerboard="0"
     inkscape:deskcolor="#d1d1d1"
     inkscape:document-units="mm"
     inkscape:zoom="0.74208053"
     inkscape:cx="396.18342"
     inkscape:cy="561.25984"
     inkscape:window-width="1902"
     inkscape:window-height="1033"
     inkscape:window-x="430"
     inkscape:window-y="13"
     inkscape:window-maximized="0"
     inkscape:current-layer="layer1" />
  <defs
     id="defs1" />
  <g
     inkscape:label="Layer 1"
     inkscape:groupmode="layer"
     id="layer1">
    <path
       style="fill:#a0892c;fill-opacity:0.968627;stroke-width:0.356542"
       d="m 64.796501,115.14011 c -11.139527,-0.22846 -11.970273,-0.29224 -15.604744,-1.19815 -2.111361,-0.52627 -4.277359,-1.18736 -4.813326,-1.46911 -1.355995,-0.71282 -3.887629,-3.39775 -4.340931,-4.60378 -0.44627,-1.18733 -0.470855,-7.18828 -0.04452,-10.867924 0.332041,-2.865811 1.609556,-5.223722 4.273568,-7.887735 3.882083,-3.882083 12.045141,-6.535621 24.218677,-7.872685 2.028799,-0.222829 3.914018,-0.491598 4.189376,-0.597265 0.697742,-0.267747 0.648434,-3.074339 -0.07872,-4.480494 -0.318652,-0.616206 -1.375427,-1.962089 -2.348389,-2.990852 l -1.769021,-1.87048 1.546168,-0.390768 c 0.850393,-0.214924 1.914717,-0.545738 2.365166,-0.73514 1.830914,-0.769855 7.057449,-0.06945 7.468144,1.000802 0.112311,0.292677 -0.289263,1.43341 -0.892391,2.534963 -1.217593,2.223809 -1.705653,4.212508 -1.365975,5.565902 0.2863,1.1407 1.349485,1.168458 5.321184,0.138924 3.649742,-0.946078 6.778906,-0.940646 12.150655,0.02109 4.447955,0.796345 13.369008,3.013689 17.565058,4.365828 l 2.55907,0.824638 4.13233,4.991597 c 2.27279,2.745378 4.53461,5.803538 5.02627,6.795913 1.23215,2.487009 1.49554,5.070666 0.72311,7.093246 -0.78134,2.04593 -3.79502,4.82626 -6.72866,6.20768 -2.41775,1.13849 -11.8425,4.09955 -15.55956,4.88848 -2.923859,0.62058 -21.246973,0.87875 -37.992542,0.53532 z"
       id="path10" />
    <path
       style="fill:#f9f9f9;fill-opacity:0.968627;stroke-width:0.264583"
       d="m 73.447779,80.578631 c 1.069626,0 2.139255,0 3.208883,0"
       id="path1" />
    <path
       style="fill:#f9f9f9;fill-opacity:0.968627;stroke-width:0.264583"
       d="m 73.091235,77.369746 c 0.47539,0.118848 1.307325,0.831934 1.42617,0.356544 0.118848,-0.47539 -1.916192,-0.356544 -1.42617,-0.356544 1.312714,0 2.67662,0.77166 3.921969,0.356544 0.217585,-0.07253 0.852043,-0.640559 1.069628,-0.713086 0.11275,-0.03758 0.47539,0 0.356542,0 -1.880126,0 -3.444171,0.08455 -5.348139,0.356542 z"
       id="path2" />
    <path
       style="fill:#f9f9f9;fill-opacity:0.968627;stroke-width:0.264583"
       d="m 75.587034,75.230492 c -0.237694,0.47539 -1.188474,1.188474 -0.713084,1.42617 0.47539,0.237694 0.713084,-1.957673 0.713084,-1.42617 0,3.539029 -1.934128,4.127095 0.713086,6.774309"
       id="path3" />
    <path
       style="fill:#786721;fill-opacity:0.968627;stroke-width:0.264583"
       d="m 78.795919,80.578631 c 0.237693,0.47539 0.237693,1.663864 0.713084,1.42617 0.47539,-0.237696 -0.713084,-1.957673 -0.713084,-1.42617 0,3.267707 1.9123,2.722753 -0.356545,4.991597"
       id="path4" />
    <path
       style="fill:#786721;fill-opacity:0.968627;stroke-width:0.264583"
       id="path5"
       d="m 51.466178,91.706675 c -1.75355,0.661009 -0.949854,0.364903 -2.408981,0.894024 0,0 0.826183,0.557303 0.826183,0.557303 v 0 c 1.456155,-0.530979 0.654301,-0.235852 2.404345,-0.888688 z" />
    <path
       style="fill:#786721;fill-opacity:0.968627;stroke-width:0.264583"
       id="path6"
       d="m 58.701278,111.34632 c 1.42477,-0.17779 2.849538,-0.35557 4.274309,-0.53336 0,0 -0.804717,-0.56951 -0.804717,-0.56951 v 0 c -1.427572,0.17876 -2.855142,0.35752 -4.282715,0.53628 z" />
    <path
       style="fill:#786721;fill-opacity:0.968627;stroke-width:0.264583"
       id="path7"
       d="m 92.744315,110.81866 c 1.781924,-5.3e-4 3.563848,-10e-4 5.345772,-0.002 0,0 -0.794822,-0.57748 -0.794822,-0.57748 v 0 c -1.783503,-5.3e-4 -3.567004,-0.001 -5.350505,-0.002 z" />
    <path
       style="fill:#786721;fill-opacity:0.968627;stroke-width:0.264583"
       id="path8"
       d="m 110.07741,107.55075 c 0.71355,-3.10884 0.27252,-1.56588 1.33065,-4.62671 0,0 -0.86834,-0.47954 -0.86834,-0.47954 v 0 c -1.06499,3.07262 -0.61971,1.52409 -1.34343,4.6434 z" />
    <circle
       id="path9"
       style="fill:#786721;stroke:#000000;stroke-width:0.264583"
       cx="113.02401"
       cy="100.54501"
       r="0.011872868" />
    <circle
       id="path11"
       style="fill:#786721;stroke:#000000;stroke-width:0.264583"
       cx="113.73709"
       cy="98.762299"
       r="0.011872868" />
    <circle
       id="path12"
       style="fill:#786721;stroke:#000000;stroke-width:0.264583"
       cx="110.52821"
       cy="91.631454"
       r="0.011872868" />
    <path
       style="fill:#786721;fill-opacity:0.968627;stroke-width:0.264583"
       id="path13"
       d="m 111.15468,94.792807 c -0.48548,4.921932 -0.19936,2.136042 -0.70814,6.859983 -0.0608,0.56411 -0.0856,1.13313 -0.18068,1.69248 -0.0236,0.13908 -0.26222,0.27742 -0.17265,0.3864 0.13784,0.16769 0.56398,0.37588 0.62896,0.16877 0.0711,-0.22653 -0.35604,-0.31416 -0.53406,-0.47125 0,0 -0.92424,-0.37564 -0.92424,-0.37564 v 0 c 0.45216,0.39231 1.14995,1.05095 1.69934,1.16826 0.14821,0.0316 0.15843,-0.26642 0.18389,-0.41582 0.0954,-0.55985 0.11567,-1.12995 0.17587,-1.69468 0.61056,-5.728511 0.10879,-0.85639 0.71803,-6.866904 z" />
    <circle
       id="path14"
       style="fill:#786721;stroke:#000000;stroke-width:0.264583"
       cx="89.492195"
       cy="94.840332"
       r="0.011872868" />
    <circle
       id="path15"
       style="fill:#786721;stroke:#000000;stroke-width:0.264583"
       cx="47.063625"
       cy="104.82352"
       r="0.011872868" />
    <path
       style="fill:#786721;fill-opacity:0.968627;stroke-width:0.264583"
       id="path16"
       d="m 50.023085,109.99654 c -5.283623,-2.29709 -1.018199,-0.59287 -6.737554,-2.44422 -0.929981,-0.30104 -1.844476,-0.64811 -2.762729,-0.98323 -0.389472,-0.14213 -0.752827,-0.37107 -1.160145,-0.44841 -0.264268,-0.0502 0.451837,0.38833 0.719794,0.36481 0.143182,-0.0126 -0.06771,-0.27938 -0.101563,-0.41907 0,0 -0.898451,-0.43566 -0.898451,-0.43566 v 0 c 0.02556,0.15743 -0.03394,0.35741 0.07671,0.47228 0.505899,0.5252 1.498775,0.84117 2.144583,1.07516 2.562529,0.92848 5.15045,1.77745 7.792032,2.45551 z" />
    <circle
       id="path17"
       style="fill:#786721;stroke:#000000;stroke-width:0.264583"
       cx="48.133255"
       cy="91.631454"
       r="0.011872868" />
    <circle
       id="path18"
       style="fill:#786721;stroke:#000000;stroke-width:0.264583"
       cx="53.837936"
       cy="89.492195"
       r="0.011872868" />
    <circle
       id="path19"
       style="fill:#786721;stroke:#000000;stroke-width:0.264583"
       cx="62.751503"
       cy="86.996399"
       r="0.011872868" />
    <circle
       id="path20"
       style="fill:#786721;stroke:#000000;stroke-width:0.264583"
       cx="86.283318"
       cy="86.996399"
       r="0.011872868" />
    <path
       style="fill:#786721;fill-opacity:0.968627;stroke-width:0.264583"
       id="path21"
       d="m 60.744205,86.703709 c -1.045546,2.64e-4 -2.423522,-0.07688 -3.479318,0.183271 -0.263113,0.06483 -0.482539,0.246748 -0.723808,0.37012 0,0 0.833205,0.548222 0.833205,0.548222 v 0 c 0.234122,-0.114323 0.448649,-0.28372 0.702365,-0.342966 1.066851,-0.249121 2.415302,-0.17364 3.473263,-0.17327 z" />
    <path
       style="fill:#786721;fill-opacity:0.968627;stroke-width:0.264583"
       id="path22"
       d="m 98.809764,86.746018 c 1.307036,-0.178205 2.614076,-0.356407 3.921116,-0.534609 0,0 -0.8063,-0.569278 -0.8063,-0.569278 v 0 c -1.30761,0.17834 -2.615217,0.35668 -3.922822,0.53502 z" />
  </g>
</svg>
